REM DIRINDEX 1\2\4\18,1\2\4\19,1\2\5\20,1\2\5\21,1\2\6\22,1\2\7\23,1\2\8\24,1\2\8\25,1\2\9\26,1\2\10\27,1\3\11\28,1\3\11\29,1\3\11\30,1\3\11\31,1\3\12\32,1\3\12\33,1\3\12\34,1\3\12\35,1\3\13\36,1\3\13\37,1\3\14\38,1\3\14\39,1\3\15\40,1\3\15\41,1\3\15\42,1\3\16\43,1\3\16\44,1\3\17\45,1\3\17\46
REM DIRNAME folder01,folder02,folder03,folder04,folder05,folder06,folder07,folder08,folder09,folder10,folder11,folder12,folder13,folder14,folder15,folder16,folder17,folder18,folder19,folder20,folder21,folder22,folder23,folder24,folder25,folder26,folder27,folder28,folder29,folder30,folder31,folder32,folder33,folder34,folder35,folder36,folder37,folder38,folder39,folder40,folder41,folder42,folder43,folder44,folder45,folder46
TITLE ""
FILE "13.mp3" MP3
  TRACK 01 AUDIO
    TITLE "0:"
    INDEX 01 00:00:00
  TRACK 02 AUDIO
    TITLE "18:cjc023_1967"
    INDEX 01 00:00:13
  TRACK 03 AUDIO
    TITLE "0:"
    INDEX 01 00:01:34
  TRACK 04 AUDIO
    TITLE "19:cjc023_1968"
    INDEX 01 00:01:56
  TRACK 05 AUDIO
    TITLE "0:"
    INDEX 01 00:03:64
  TRACK 06 AUDIO
    TITLE "18:cjc023_1969"
    INDEX 01 00:04:64
  TRACK 07 AUDIO
    TITLE "0:"
    INDEX 01 00:06:16
  TRACK 08 AUDIO
    TITLE "19:cjc023_1970"
    INDEX 01 00:06:35
  TRACK 09 AUDIO
    TITLE "0:"
    INDEX 01 00:08:40
  TRACK 10 AUDIO
    TITLE "18:cjc023_1971"
    INDEX 01 00:09:38
  TRACK 11 AUDIO
    TITLE "0:"
    INDEX 01 00:10:43
  TRACK 12 AUDIO
    TITLE "19:cjc023_1972"
    INDEX 01 00:10:63
  TRACK 13 AUDIO
    TITLE "0:"
    INDEX 01 00:12:26
  TRACK 14 AUDIO
    TITLE "18:cjc023_1973"
    INDEX 01 00:13:22
  TRACK 15 AUDIO
    TITLE "0:"
    INDEX 01 00:14:43
  TRACK 16 AUDIO
    TITLE "19:cjc023_1974"
    INDEX 01 00:14:64
  TRACK 17 AUDIO
    TITLE "0:"
    INDEX 01 00:17:16
  TRACK 18 AUDIO
    TITLE "18:cjc023_1975"
    INDEX 01 00:18:17
  TRACK 19 AUDIO
    TITLE "0:"
    INDEX 01 00:19:22
  TRACK 20 AUDIO
    TITLE "19:cjc023_1976"
    INDEX 01 00:19:54
  TRACK 21 AUDIO
    TITLE "0:"
    INDEX 01 00:21:41
  TRACK 22 AUDIO
    TITLE "18:cjc023_1977"
    INDEX 01 00:22:32
  TRACK 23 AUDIO
    TITLE "0:"
    INDEX 01 00:23:73
  TRACK 24 AUDIO
    TITLE "19:cjc023_1978"
    INDEX 01 00:24:20
  TRACK 25 AUDIO
    TITLE "0:"
    INDEX 01 00:27:26
  TRACK 26 AUDIO
    TITLE "18:cjc023_1979"
    INDEX 01 00:28:25
  TRACK 27 AUDIO
    TITLE "0:"
    INDEX 01 00:29:48
  TRACK 28 AUDIO
    TITLE "19:cjc023_1980"
    INDEX 01 00:29:70
  TRACK 29 AUDIO
    TITLE "0:"
    INDEX 01 00:32:21
  TRACK 30 AUDIO
    TITLE "18:cjc023_1981"
    INDEX 01 00:33:21
  TRACK 31 AUDIO
    TITLE "0:"
    INDEX 01 00:34:38
  TRACK 32 AUDIO
    TITLE "19:cjc023_1982"
    INDEX 01 00:34:61
  TRACK 33 AUDIO
    TITLE "0:"
    INDEX 01 00:37:67
  TRACK 34 AUDIO
    TITLE "18:cjc023_1983"
    INDEX 01 00:38:63
  TRACK 35 AUDIO
    TITLE "0:"
    INDEX 01 00:40:01
  TRACK 36 AUDIO
    TITLE "19:cjc023_1984"
    INDEX 01 00:40:23
  TRACK 37 AUDIO
    TITLE "0:"
    INDEX 01 00:41:67
  TRACK 38 AUDIO
    TITLE "18:cjc023_1985"
    INDEX 01 00:42:68
  TRACK 39 AUDIO
    TITLE "0:"
    INDEX 01 00:44:09
  TRACK 40 AUDIO
    TITLE "19:cjc023_1986"
    INDEX 01 00:44:32
  TRACK 41 AUDIO
    TITLE "0:"
    INDEX 01 00:46:13
  TRACK 42 AUDIO
    TITLE "18:cjc023_1987"
    INDEX 01 00:47:07
  TRACK 43 AUDIO
    TITLE "0:"
    INDEX 01 00:48:28
  TRACK 44 AUDIO
    TITLE "19:cjc023_1988"
    INDEX 01 00:48:48
  TRACK 45 AUDIO
    TITLE "0:"
    INDEX 01 00:50:54
  TRACK 46 AUDIO
    TITLE "18:cjc023_1989"
    INDEX 01 00:51:50
  TRACK 47 AUDIO
    TITLE "0:"
    INDEX 01 00:52:69
  TRACK 48 AUDIO
    TITLE "19:cjc023_1990"
    INDEX 01 00:53:15
  TRACK 49 AUDIO
    TITLE "0:"
    INDEX 01 00:55:10
  TRACK 50 AUDIO
    TITLE "18:cjc023_1991"
    INDEX 01 00:56:06
  TRACK 51 AUDIO
    TITLE "0:"
    INDEX 01 00:57:37
  TRACK 52 AUDIO
    TITLE "19:cjc023_1992"
    INDEX 01 00:57:58
  TRACK 53 AUDIO
    TITLE "0:"
    INDEX 01 01:00:23
  TRACK 54 AUDIO
    TITLE "18:cjc023_1993"
    INDEX 01 01:01:17
  TRACK 55 AUDIO
    TITLE "0:"
    INDEX 01 01:02:38
  TRACK 56 AUDIO
    TITLE "19:cjc023_1994"
    INDEX 01 01:02:57
  TRACK 57 AUDIO
    TITLE "0:"
    INDEX 01 01:04:72
  TRACK 58 AUDIO
    TITLE "18:cjc023_1995"
    INDEX 01 01:05:69
  TRACK 59 AUDIO
    TITLE "0:"
    INDEX 01 01:07:14
  TRACK 60 AUDIO
    TITLE "19:cjc023_1996"
    INDEX 01 01:07:33
  TRACK 61 AUDIO
    TITLE "0:"
    INDEX 01 01:09:16
  TRACK 62 AUDIO
    TITLE "18:cjc023_1997"
    INDEX 01 01:10:12
  TRACK 63 AUDIO
    TITLE "0:"
    INDEX 01 01:11:33
  TRACK 64 AUDIO
    TITLE "19:cjc023_1998"
    INDEX 01 01:11:52
  TRACK 65 AUDIO
    TITLE "0:"
    INDEX 01 01:13:36
  TRACK 66 AUDIO
    TITLE "18:cjc023_1999"
    INDEX 01 01:14:37
  TRACK 67 AUDIO
    TITLE "0:"
    INDEX 01 01:15:66
  TRACK 68 AUDIO
    TITLE "19:cjc023_2000"
    INDEX 01 01:16:12
  TRACK 69 AUDIO
    TITLE "0:"
    INDEX 01 01:19:44
  TRACK 70 AUDIO
    TITLE "18:cjc023_2001"
    INDEX 01 01:20:44
  TRACK 71 AUDIO
    TITLE "0:"
    INDEX 01 01:21:57
  TRACK 72 AUDIO
    TITLE "19:cjc023_2002"
    INDEX 01 01:22:03
  TRACK 73 AUDIO
    TITLE "0:"
    INDEX 01 01:23:62
  TRACK 74 AUDIO
    TITLE "18:cjc023_2003"
    INDEX 01 01:24:59
  TRACK 75 AUDIO
    TITLE "0:"
    INDEX 01 01:26:01
  TRACK 76 AUDIO
    TITLE "19:cjc023_2004"
    INDEX 01 01:26:21
  TRACK 77 AUDIO
    TITLE "0:"
    INDEX 01 01:28:24
  TRACK 78 AUDIO
    TITLE "18:cjc023_2005"
    INDEX 01 01:29:17
  TRACK 79 AUDIO
    TITLE "0:"
    INDEX 01 01:30:32
  TRACK 80 AUDIO
    TITLE "19:cjc023_2006"
    INDEX 01 01:30:56
  TRACK 81 AUDIO
    TITLE "0:"
    INDEX 01 01:32:60
  TRACK 82 AUDIO
    TITLE "18:cjc023_2007"
    INDEX 01 01:33:56
  TRACK 83 AUDIO
    TITLE "0:"
    INDEX 01 01:34:71
  TRACK 84 AUDIO
    TITLE "19:cjc023_2008"
    INDEX 01 01:35:20
  TRACK 85 AUDIO
    TITLE "0:"
    INDEX 01 01:38:55
  TRACK 86 AUDIO
    TITLE "18:cjc023_2009"
    INDEX 01 01:39:53
  TRACK 87 AUDIO
    TITLE "0:"
    INDEX 01 01:40:64
  TRACK 88 AUDIO
    TITLE "19:cjc023_2010"
    INDEX 01 01:41:12
  TRACK 89 AUDIO
    TITLE "0:"
    INDEX 01 01:43:64
  TRACK 90 AUDIO
    TITLE "18:cjc023_2011"
    INDEX 01 01:44:60
  TRACK 91 AUDIO
    TITLE "0:"
    INDEX 01 01:46:00
  TRACK 92 AUDIO
    TITLE "19:cjc023_2012"
    INDEX 01 01:46:23
  TRACK 93 AUDIO
    TITLE "0:"
    INDEX 01 01:49:22
  TRACK 94 AUDIO
    TITLE "18:cjc023_2013"
    INDEX 01 01:50:21
  TRACK 95 AUDIO
    TITLE "0:"
    INDEX 01 01:51:46
  TRACK 96 AUDIO
    TITLE "19:cjc023_2014"
    INDEX 01 01:51:68
  TRACK 97 AUDIO
    TITLE "0:"
    INDEX 01 01:54:48
  TRACK 98 AUDIO
    TITLE "18:cjc023_2015"
    INDEX 01 01:55:42
  TRACK 99 AUDIO
    TITLE "0:"
    INDEX 01 01:56:73
  TRACK 100 AUDIO
    TITLE "19:cjc023_2016"
    INDEX 01 01:57:21
  TRACK 101 AUDIO
    TITLE "0:"
    INDEX 01 02:00:72
  TRACK 102 AUDIO
    TITLE "18:cjc023_2017"
    INDEX 01 02:01:70
  TRACK 103 AUDIO
    TITLE "0:"
    INDEX 01 02:03:04
  TRACK 104 AUDIO
    TITLE "19:cjc023_2018"
    INDEX 01 02:03:28
  TRACK 105 AUDIO
    TITLE "0:"
    INDEX 01 02:05:66
  TRACK 106 AUDIO
    TITLE "18:cjc023_2019"
    INDEX 01 02:06:63
  TRACK 107 AUDIO
    TITLE "0:"
    INDEX 01 02:08:13
  TRACK 108 AUDIO
    TITLE "19:cjc023_2020"
    INDEX 01 02:08:39
  TRACK 109 AUDIO
    TITLE "0:"
    INDEX 01 02:10:43
  TRACK 110 AUDIO
    TITLE "18:cjc023_2021"
    INDEX 01 02:11:41
  TRACK 111 AUDIO
    TITLE "0:"
    INDEX 01 02:12:70
  TRACK 112 AUDIO
    TITLE "19:cjc023_2022"
    INDEX 01 02:13:14
  TRACK 113 AUDIO
    TITLE "0:"
    INDEX 01 02:15:21
  TRACK 114 AUDIO
    TITLE "18:cjc023_2023"
    INDEX 01 02:16:19
  TRACK 115 AUDIO
    TITLE "0:"
    INDEX 01 02:17:51
  TRACK 116 AUDIO
    TITLE "19:cjc023_2024"
    INDEX 01 02:17:73
  TRACK 117 AUDIO
    TITLE "0:"
    INDEX 01 02:20:18
  TRACK 118 AUDIO
    TITLE "18:cjc023_2025"
    INDEX 01 02:21:16
  TRACK 119 AUDIO
    TITLE "0:"
    INDEX 01 02:22:45
  TRACK 120 AUDIO
    TITLE "19:cjc023_2026"
    INDEX 01 02:22:68
  TRACK 121 AUDIO
    TITLE "0:"
    INDEX 01 02:25:49
  TRACK 122 AUDIO
    TITLE "18:cjc023_2027"
    INDEX 01 02:26:48
  TRACK 123 AUDIO
    TITLE "0:"
    INDEX 01 02:27:71
  TRACK 124 AUDIO
    TITLE "19:cjc023_2028"
    INDEX 01 02:28:16
  TRACK 125 AUDIO
    TITLE "0:"
    INDEX 01 02:30:64
  TRACK 126 AUDIO
    TITLE "18:cjc023_2029"
    INDEX 01 02:31:61
  TRACK 127 AUDIO
    TITLE "0:"
    INDEX 01 02:33:11
  TRACK 128 AUDIO
    TITLE "19:cjc023_2030"
    INDEX 01 02:33:33
  TRACK 129 AUDIO
    TITLE "0:"
    INDEX 01 02:35:57
  TRACK 130 AUDIO
    TITLE "18:cjc023_2031"
    INDEX 01 02:36:60
  TRACK 131 AUDIO
    TITLE "0:"
    INDEX 01 02:38:03
  TRACK 132 AUDIO
    TITLE "19:cjc023_2032"
    INDEX 01 02:38:24
  TRACK 133 AUDIO
    TITLE "0:"
    INDEX 01 02:41:01
  TRACK 134 AUDIO
    TITLE "18:cjc023_2033"
    INDEX 01 02:41:73
  TRACK 135 AUDIO
    TITLE "0:"
    INDEX 01 02:43:23
  TRACK 136 AUDIO
    TITLE "19:cjc023_2034"
    INDEX 01 02:43:43
  TRACK 137 AUDIO
    TITLE "0:"
    INDEX 01 02:45:34
  TRACK 138 AUDIO
    TITLE "18:cjc023_2035"
    INDEX 01 02:46:28
  TRACK 139 AUDIO
    TITLE "0:"
    INDEX 01 02:47:41
  TRACK 140 AUDIO
    TITLE "19:cjc023_2036"
    INDEX 01 02:47:62
  TRACK 141 AUDIO
    TITLE "0:"
    INDEX 01 02:50:21
  TRACK 142 AUDIO
    TITLE "18:cjc023_2037"
    INDEX 01 02:51:27
  TRACK 143 AUDIO
    TITLE "0:"
    INDEX 01 02:52:52
  TRACK 144 AUDIO
    TITLE "19:cjc023_2038"
    INDEX 01 02:53:00
  TRACK 145 AUDIO
    TITLE "0:"
    INDEX 01 02:55:74
  TRACK 146 AUDIO
    TITLE "18:cjc023_2039"
    INDEX 01 02:56:67
  TRACK 147 AUDIO
    TITLE "0:"
    INDEX 01 02:58:23
  TRACK 148 AUDIO
    TITLE "19:cjc023_2040"
    INDEX 01 02:58:42
  TRACK 149 AUDIO
    TITLE "0:"
    INDEX 01 03:00:16
  TRACK 150 AUDIO
    TITLE "18:cjc023_2041"
    INDEX 01 03:01:13
  TRACK 151 AUDIO
    TITLE "0:"
    INDEX 01 03:02:36
  TRACK 152 AUDIO
    TITLE "19:cjc023_2042"
    INDEX 01 03:02:60
  TRACK 153 AUDIO
    TITLE "0:"
    INDEX 01 03:04:55
  TRACK 154 AUDIO
    TITLE "18:cjc023_2043"
    INDEX 01 03:05:52
  TRACK 155 AUDIO
    TITLE "0:"
    INDEX 01 03:06:67
  TRACK 156 AUDIO
    TITLE "19:cjc023_2044"
    INDEX 01 03:07:16
  TRACK 157 AUDIO
    TITLE "0:"
    INDEX 01 03:10:14
  TRACK 158 AUDIO
    TITLE "18:cjc023_2045"
    INDEX 01 03:11:10
  TRACK 159 AUDIO
    TITLE "0:"
    INDEX 01 03:12:31
  TRACK 160 AUDIO
    TITLE "19:cjc023_2046"
    INDEX 01 03:12:52
  TRACK 161 AUDIO
    TITLE "0:"
    INDEX 01 03:15:02
  TRACK 162 AUDIO
    TITLE "18:cjc023_2047"
    INDEX 01 03:15:72
  TRACK 163 AUDIO
    TITLE "0:"
    INDEX 01 03:17:16
  TRACK 164 AUDIO
    TITLE "19:cjc023_2048"
    INDEX 01 03:17:38
  TRACK 165 AUDIO
    TITLE "0:"
    INDEX 01 03:19:03
  TRACK 166 AUDIO
    TITLE "18:cjc023_2049"
    INDEX 01 03:20:01
  TRACK 167 AUDIO
    TITLE "0:"
    INDEX 01 03:21:24
  TRACK 168 AUDIO
    TITLE "19:cjc023_2050"
    INDEX 01 03:21:44
  TRACK 169 AUDIO
    TITLE "0:"
    INDEX 01 03:24:34
  TRACK 170 AUDIO
    TITLE "18:cjc023_2051"
    INDEX 01 03:25:33
  TRACK 171 AUDIO
    TITLE "0:"
    INDEX 01 03:26:53
  TRACK 172 AUDIO
    TITLE "19:cjc023_2052"
    INDEX 01 03:26:72
  TRACK 173 AUDIO
    TITLE "0:"
    INDEX 01 03:28:55
  TRACK 174 AUDIO
    TITLE "18:cjc023_2053"
    INDEX 01 03:29:53
  TRACK 175 AUDIO
    TITLE "0:"
    INDEX 01 03:30:72
  TRACK 176 AUDIO
    TITLE "19:cjc023_2054"
    INDEX 01 03:31:18
  TRACK 177 AUDIO
    TITLE "0:"
    INDEX 01 03:34:46
  TRACK 178 AUDIO
    TITLE "18:cjc023_2055"
    INDEX 01 03:35:46
  TRACK 179 AUDIO
    TITLE "0:"
    INDEX 01 03:36:63
  TRACK 180 AUDIO
    TITLE "19:cjc023_2056"
    INDEX 01 03:37:11
  TRACK 181 AUDIO
    TITLE "0:"
    INDEX 01 03:40:08
  TRACK 182 AUDIO
    TITLE "18:cjc023_2057"
    INDEX 01 03:41:07
  TRACK 183 AUDIO
    TITLE "0:"
    INDEX 01 03:42:42
  TRACK 184 AUDIO
    TITLE "19:cjc023_2058"
    INDEX 01 03:42:63
  TRACK 185 AUDIO
    TITLE "0:"
    INDEX 01 03:44:68
  TRACK 186 AUDIO
    TITLE "18:cjc023_2059"
    INDEX 01 03:45:66
  TRACK 187 AUDIO
    TITLE "0:"
    INDEX 01 03:47:21
  TRACK 188 AUDIO
    TITLE "19:cjc023_2060"
    INDEX 01 03:47:43
  TRACK 189 AUDIO
    TITLE "0:"
    INDEX 01 03:50:20
  TRACK 190 AUDIO
    TITLE "18:cjc023_2061"
    INDEX 01 03:51:17
  TRACK 191 AUDIO
    TITLE "0:"
    INDEX 01 03:52:36
  TRACK 192 AUDIO
    TITLE "19:cjc023_2062"
    INDEX 01 03:52:58
  TRACK 193 AUDIO
    TITLE "0:"
    INDEX 01 03:55:25
  TRACK 194 AUDIO
    TITLE "18:cjc023_2063"
    INDEX 01 03:56:24
  TRACK 195 AUDIO
    TITLE "0:"
    INDEX 01 03:57:53
  TRACK 196 AUDIO
    TITLE "19:cjc023_2064"
    INDEX 01 03:58:02
  TRACK 197 AUDIO
    TITLE "0:"
    INDEX 01 03:59:62
  TRACK 198 AUDIO
    TITLE "18:cjc023_2065"
    INDEX 01 04:00:61
  TRACK 199 AUDIO
    TITLE "0:"
    INDEX 01 04:02:01
  TRACK 200 AUDIO
    TITLE "19:cjc023_2066"
    INDEX 01 04:02:31
  TRACK 201 AUDIO
    TITLE "0:"
    INDEX 01 04:04:16
  TRACK 202 AUDIO
    TITLE "18:cjc023_2067"
    INDEX 01 04:05:13
  TRACK 203 AUDIO
    TITLE "0:"
    INDEX 01 04:06:34
  TRACK 204 AUDIO
    TITLE "19:cjc023_2068"
    INDEX 01 04:06:52
  TRACK 205 AUDIO
    TITLE "0:"
    INDEX 01 04:08:31
  TRACK 206 AUDIO
    TITLE "18:cjc023_2069"
    INDEX 01 04:09:33
  TRACK 207 AUDIO
    TITLE "0:"
    INDEX 01 04:10:30
  TRACK 208 AUDIO
    TITLE "19:cjc023_2070"
    INDEX 01 04:10:50
  TRACK 209 AUDIO
    TITLE "0:"
    INDEX 01 04:12:29
  TRACK 210 AUDIO
    TITLE "18:cjc023_2071"
    INDEX 01 04:13:25
  TRACK 211 AUDIO
    TITLE "0:"
    INDEX 01 04:14:44
  TRACK 212 AUDIO
    TITLE "19:cjc023_2072"
    INDEX 01 04:14:65
  TRACK 213 AUDIO
    TITLE "0:"
    INDEX 01 04:17:36
  TRACK 214 AUDIO
    TITLE "18:cjc023_2073"
    INDEX 01 04:18:32
  TRACK 215 AUDIO
    TITLE "0:"
    INDEX 01 04:19:31
  TRACK 216 AUDIO
    TITLE "19:cjc023_2074"
    INDEX 01 04:19:53
  TRACK 217 AUDIO
    TITLE "0:"
    INDEX 01 04:22:06
  TRACK 218 AUDIO
    TITLE "18:cjc023_2075"
    INDEX 01 04:23:03
  TRACK 219 AUDIO
    TITLE "0:"
    INDEX 01 04:24:19
  TRACK 220 AUDIO
    TITLE "19:cjc023_2076"
    INDEX 01 04:24:40
  TRACK 221 AUDIO
    TITLE "0:"
    INDEX 01 04:27:35
  TRACK 222 AUDIO
    TITLE "18:cjc023_2077"
    INDEX 01 04:28:30
  TRACK 223 AUDIO
    TITLE "0:"
    INDEX 01 04:29:32
  TRACK 224 AUDIO
    TITLE "19:cjc023_2078"
    INDEX 01 04:29:55
  TRACK 225 AUDIO
    TITLE "0:"
    INDEX 01 04:33:14
  TRACK 226 AUDIO
    TITLE "18:cjc023_2079"
    INDEX 01 04:34:11
  TRACK 227 AUDIO
    TITLE "0:"
    INDEX 01 04:35:48
  TRACK 228 AUDIO
    TITLE "19:cjc023_2080"
    INDEX 01 04:35:67
  TRACK 229 AUDIO
    TITLE "0:"
    INDEX 01 04:38:01
  TRACK 230 AUDIO
    TITLE "18:cjc023_2081"
    INDEX 01 04:38:70
  TRACK 231 AUDIO
    TITLE "0:"
    INDEX 01 04:40:06
  TRACK 232 AUDIO
    TITLE "19:cjc023_2082"
    INDEX 01 04:40:25
  TRACK 233 AUDIO
    TITLE "0:"
    INDEX 01 04:43:28
  TRACK 234 AUDIO
    TITLE "18:cjc023_2083"
    INDEX 01 04:44:19
  TRACK 235 AUDIO
    TITLE "0:"
    INDEX 01 04:45:34
  TRACK 236 AUDIO
    TITLE "19:cjc023_2084"
    INDEX 01 04:45:56
  TRACK 237 AUDIO
    TITLE "0:"
    INDEX 01 04:47:41
  TRACK 238 AUDIO
    TITLE "18:cjc023_2085"
    INDEX 01 04:48:35
  TRACK 239 AUDIO
    TITLE "0:"
    INDEX 01 04:49:54
  TRACK 240 AUDIO
    TITLE "19:cjc023_2086"
    INDEX 01 04:50:02
  TRACK 241 AUDIO
    TITLE "0:"
    INDEX 01 04:51:45
  TRACK 242 AUDIO
    TITLE "18:cjc023_2087"
    INDEX 01 04:52:40
  TRACK 243 AUDIO
    TITLE "0:"
    INDEX 01 04:53:57
  TRACK 244 AUDIO
    TITLE "19:cjc023_2088"
    INDEX 01 04:54:06
  TRACK 245 AUDIO
    TITLE "0:"
    INDEX 01 04:55:66
  TRACK 246 AUDIO
    TITLE "18:cjc023_2089"
    INDEX 01 04:56:68
  TRACK 247 AUDIO
    TITLE "0:"
    INDEX 01 04:58:08
  TRACK 248 AUDIO
    TITLE "19:cjc023_2090"
    INDEX 01 04:58:33
  TRACK 249 AUDIO
    TITLE "0:"
    INDEX 01 05:01:04
  TRACK 250 AUDIO
    TITLE "18:cjc023_2091"
    INDEX 01 05:02:04
  TRACK 251 AUDIO
    TITLE "0:"
    INDEX 01 05:03:25
  TRACK 252 AUDIO
    TITLE "19:cjc023_2092"
    INDEX 01 05:03:48
  TRACK 253 AUDIO
    TITLE "0:"
    INDEX 01 05:06:07
  TRACK 254 AUDIO
    TITLE "18:cjc023_2093"
    INDEX 01 05:07:03
  TRACK 255 AUDIO
    TITLE "0:"
    INDEX 01 05:08:16
  TRACK 256 AUDIO
    TITLE "19:cjc023_2094"
    INDEX 01 05:08:37
  TRACK 257 AUDIO
    TITLE "0:"
    INDEX 01 05:11:32
  TRACK 258 AUDIO
    TITLE "18:cjc023_2095"
    INDEX 01 05:12:27
  TRACK 259 AUDIO
    TITLE "0:"
    INDEX 01 05:13:54
  TRACK 260 AUDIO
    TITLE "19:cjc023_2096"
    INDEX 01 05:14:01
  TRACK 261 AUDIO
    TITLE "0:"
    INDEX 01 05:16:49
  TRACK 262 AUDIO
    TITLE "18:cjc023_2097"
    INDEX 01 05:17:48
  TRACK 263 AUDIO
    TITLE "0:"
    INDEX 01 05:18:71
  TRACK 264 AUDIO
    TITLE "19:cjc023_2098"
    INDEX 01 05:19:18
  TRACK 265 AUDIO
    TITLE "0:"
    INDEX 01 05:20:64
  TRACK 266 AUDIO
    TITLE "18:cjc023_2099"
    INDEX 01 05:21:60
  TRACK 267 AUDIO
    TITLE "0:"
    INDEX 01 05:23:15
  TRACK 268 AUDIO
    TITLE "19:cjc023_2100"
    INDEX 01 05:23:37
  TRACK 269 AUDIO
    TITLE "0:"
    INDEX 01 05:25:38
  TRACK 270 AUDIO
    TITLE "18:cjc023_2101"
    INDEX 01 05:26:35
  TRACK 271 AUDIO
    TITLE "0:"
    INDEX 01 05:27:72
  TRACK 272 AUDIO
    TITLE "19:cjc023_2102"
    INDEX 01 05:28:19
  TRACK 273 AUDIO
    TITLE "0:"
    INDEX 01 05:31:29
  TRACK 274 AUDIO
    TITLE "18:cjc023_2103"
    INDEX 01 05:32:32
  TRACK 275 AUDIO
    TITLE "0:"
    INDEX 01 05:33:57
  TRACK 276 AUDIO
    TITLE "19:cjc023_2104"
    INDEX 01 05:34:04
  TRACK 277 AUDIO
    TITLE "0:"
    INDEX 01 05:37:02
  TRACK 278 AUDIO
    TITLE "18:cjc023_2105"
    INDEX 01 05:37:72
  TRACK 279 AUDIO
    TITLE "0:"
    INDEX 01 05:39:38
  TRACK 280 AUDIO
    TITLE "19:cjc023_2106"
    INDEX 01 05:39:60
  TRACK 281 AUDIO
    TITLE "0:"
    INDEX 01 05:42:62
  TRACK 282 AUDIO
    TITLE "18:cjc023_2107"
    INDEX 01 05:43:53
  TRACK 283 AUDIO
    TITLE "0:"
    INDEX 01 05:45:17
  TRACK 284 AUDIO
    TITLE "19:cjc023_2108"
    INDEX 01 05:45:39
  TRACK 285 AUDIO
    TITLE "0:"
    INDEX 01 05:47:71
  TRACK 286 AUDIO
    TITLE "18:cjc023_2109"
    INDEX 01 05:48:64
  TRACK 287 AUDIO
    TITLE "0:"
    INDEX 01 05:50:12
  TRACK 288 AUDIO
    TITLE "19:cjc023_2110"
    INDEX 01 05:50:32
  TRACK 289 AUDIO
    TITLE "0:"
    INDEX 01 05:52:39
  TRACK 290 AUDIO
    TITLE "18:cjc023_2111"
    INDEX 01 05:53:34
  TRACK 291 AUDIO
    TITLE "0:"
    INDEX 01 05:54:65
  TRACK 292 AUDIO
    TITLE "19:cjc023_2112"
    INDEX 01 05:55:10
  TRACK 293 AUDIO
    TITLE "0:"
    INDEX 01 05:57:03
  TRACK 294 AUDIO
    TITLE "18:cjc023_2113"
    INDEX 01 05:57:73
  TRACK 295 AUDIO
    TITLE "0:"
    INDEX 01 05:59:15
  TRACK 296 AUDIO
    TITLE "19:cjc023_2114"
    INDEX 01 05:59:37
  TRACK 297 AUDIO
    TITLE "0:"
    INDEX 01 06:01:47
  TRACK 298 AUDIO
    TITLE "18:cjc023_2115"
    INDEX 01 06:02:45
  TRACK 299 AUDIO
    TITLE "0:"
    INDEX 01 06:03:58
  TRACK 300 AUDIO
    TITLE "19:cjc023_2116"
    INDEX 01 06:04:03
  TRACK 301 AUDIO
    TITLE "0:"
    INDEX 01 06:06:56
  TRACK 302 AUDIO
    TITLE "18:cjc023_2117"
    INDEX 01 06:07:52
  TRACK 303 AUDIO
    TITLE "0:"
    INDEX 01 06:08:63
  TRACK 304 AUDIO
    TITLE "19:cjc023_2118"
    INDEX 01 06:09:14
  TRACK 305 AUDIO
    TITLE "0:"
    INDEX 01 06:11:24
  TRACK 306 AUDIO
    TITLE "18:cjc023_2119"
    INDEX 01 06:12:20
  TRACK 307 AUDIO
    TITLE "0:"
    INDEX 01 06:13:49
  TRACK 308 AUDIO
    TITLE "19:cjc023_2120"
    INDEX 01 06:13:68
  TRACK 309 AUDIO
    TITLE "0:"
    INDEX 01 06:15:59
  TRACK 310 AUDIO
    TITLE "18:cjc023_2121"
    INDEX 01 06:16:55
  TRACK 311 AUDIO
    TITLE "0:"
    INDEX 01 06:17:68
  TRACK 312 AUDIO
    TITLE "19:cjc023_2122"
    INDEX 01 06:18:15
  TRACK 313 AUDIO
    TITLE "0:"
    INDEX 01 06:20:25
  TRACK 314 AUDIO
    TITLE "18:cjc023_2123"
    INDEX 01 06:21:21
  TRACK 315 AUDIO
    TITLE "0:"
    INDEX 01 06:22:36
  TRACK 316 AUDIO
    TITLE "19:cjc023_2124"
    INDEX 01 06:22:52
  TRACK 317 AUDIO
    TITLE "0:"
    INDEX 01 06:25:60
  TRACK 318 AUDIO
    TITLE "18:cjc023_2125"
    INDEX 01 06:26:51
  TRACK 319 AUDIO
    TITLE "0:"
    INDEX 01 06:27:66
  TRACK 320 AUDIO
    TITLE "19:cjc023_2126"
    INDEX 01 06:28:13
  TRACK 321 AUDIO
    TITLE "0:"
    INDEX 01 06:30:20
  TRACK 322 AUDIO
    TITLE "18:cjc023_2127"
    INDEX 01 06:31:15
  TRACK 323 AUDIO
    TITLE "0:"
    INDEX 01 06:32:34
  TRACK 324 AUDIO
    TITLE "19:cjc023_2128"
    INDEX 01 06:32:56
  TRACK 325 AUDIO
    TITLE "0:"
    INDEX 01 06:35:29
  TRACK 326 AUDIO
    TITLE "18:cjc023_2129"
    INDEX 01 06:36:24
  TRACK 327 AUDIO
    TITLE "0:"
    INDEX 01 06:37:43
  TRACK 328 AUDIO
    TITLE "19:cjc023_2130"
    INDEX 01 06:37:65
  TRACK 329 AUDIO
    TITLE "0:"
    INDEX 01 06:40:61
  TRACK 330 AUDIO
    TITLE "18:cjc023_2131"
    INDEX 01 06:41:59
  TRACK 331 AUDIO
    TITLE "0:"
    INDEX 01 06:43:03
  TRACK 332 AUDIO
    TITLE "19:cjc023_2132"
    INDEX 01 06:43:26
  TRACK 333 AUDIO
    TITLE "0:"
    INDEX 01 06:45:37
  TRACK 334 AUDIO
    TITLE "18:cjc023_2133"
    INDEX 01 06:46:32
  TRACK 335 AUDIO
    TITLE "0:"
    INDEX 01 06:47:63
  TRACK 336 AUDIO
    TITLE "19:cjc023_2134"
    INDEX 01 06:48:10
  TRACK 337 AUDIO
    TITLE "0:"
    INDEX 01 06:50:73
  TRACK 338 AUDIO
    TITLE "18:cjc023_2135"
    INDEX 01 06:51:69
  TRACK 339 AUDIO
    TITLE "0:"
    INDEX 01 06:53:23
  TRACK 340 AUDIO
    TITLE "19:cjc023_2136"
    INDEX 01 06:53:46
  TRACK 341 AUDIO
    TITLE "0:"
    INDEX 01 06:55:73
  TRACK 342 AUDIO
    TITLE "18:cjc023_2137"
    INDEX 01 06:56:68
  TRACK 343 AUDIO
    TITLE "0:"
    INDEX 01 06:58:04
  TRACK 344 AUDIO
    TITLE "19:cjc023_2138"
    INDEX 01 06:58:26
  TRACK 345 AUDIO
    TITLE "0:"
    INDEX 01 07:01:28
  TRACK 346 AUDIO
    TITLE "18:cjc023_2139"
    INDEX 01 07:02:26
  TRACK 347 AUDIO
    TITLE "0:"
    INDEX 01 07:03:47
  TRACK 348 AUDIO
    TITLE "19:cjc023_2140"
    INDEX 01 07:03:70
  TRACK 349 AUDIO
    TITLE "0:"
    INDEX 01 07:06:06
  TRACK 350 AUDIO
    TITLE "18:cjc023_2141"
    INDEX 01 07:07:05
  TRACK 351 AUDIO
    TITLE "0:"
    INDEX 01 07:08:40
  TRACK 352 AUDIO
    TITLE "19:cjc023_2142"
    INDEX 01 07:08:61
  TRACK 353 AUDIO
    TITLE "0:"
    INDEX 01 07:11:17
  TRACK 354 AUDIO
    TITLE "18:cjc023_2143"
    INDEX 01 07:12:16
  TRACK 355 AUDIO
    TITLE "0:"
    INDEX 01 07:13:21
  TRACK 356 AUDIO
    TITLE "19:cjc023_2144"
    INDEX 01 07:13:43
  TRACK 357 AUDIO
    TITLE "0:"
    INDEX 01 07:15:18
  TRACK 358 AUDIO
    TITLE "18:cjc023_2145"
    INDEX 01 07:16:12
  TRACK 359 AUDIO
    TITLE "0:"
    INDEX 01 07:17:39
  TRACK 360 AUDIO
    TITLE "19:cjc023_2146"
    INDEX 01 07:17:60
  TRACK 361 AUDIO
    TITLE "0:"
    INDEX 01 07:20:53
  TRACK 362 AUDIO
    TITLE "18:cjc023_2147"
    INDEX 01 07:21:50
  TRACK 363 AUDIO
    TITLE "0:"
    INDEX 01 07:22:60
  TRACK 364 AUDIO
    TITLE "19:cjc023_2148"
    INDEX 01 07:23:04
  TRACK 365 AUDIO
    TITLE "0:"
    INDEX 01 07:25:44
  TRACK 366 AUDIO
    TITLE "18:cjc023_2149"
    INDEX 01 07:26:40
  TRACK 367 AUDIO
    TITLE "0:"
    INDEX 01 07:27:61
  TRACK 368 AUDIO
    TITLE "19:cjc023_2150"
    INDEX 01 07:28:07
  TRACK 369 AUDIO
    TITLE "0:"
    INDEX 01 07:29:64
  TRACK 370 AUDIO
    TITLE "18:cjc023_2151"
    INDEX 01 07:30:63
  TRACK 371 AUDIO
    TITLE "0:"
    INDEX 01 07:32:13
  TRACK 372 AUDIO
    TITLE "19:cjc023_2152"
    INDEX 01 07:32:33
  TRACK 373 AUDIO
    TITLE "0:"
    INDEX 01 07:34:37
  TRACK 374 AUDIO
    TITLE "18:cjc023_2153"
    INDEX 01 07:35:33
  TRACK 375 AUDIO
    TITLE "0:"
    INDEX 01 07:36:44
  TRACK 376 AUDIO
    TITLE "19:cjc023_2154"
    INDEX 01 07:36:66
  TRACK 377 AUDIO
    TITLE "0:"
    INDEX 01 07:38:55
  TRACK 378 AUDIO
    TITLE "18:cjc023_2155"
    INDEX 01 07:39:52
  TRACK 379 AUDIO
    TITLE "0:"
    INDEX 01 07:40:61
  TRACK 380 AUDIO
    TITLE "19:cjc023_2156"
    INDEX 01 07:41:08
  TRACK 381 AUDIO
    TITLE "0:"
    INDEX 01 07:42:51
  TRACK 382 AUDIO
    TITLE "18:cjc023_2157"
    INDEX 01 07:43:46
  TRACK 383 AUDIO
    TITLE "0:"
    INDEX 01 07:44:59
  TRACK 384 AUDIO
    TITLE "19:cjc023_2158"
    INDEX 01 07:45:06
  TRACK 385 AUDIO
    TITLE "0:"
    INDEX 01 07:47:24
  TRACK 386 AUDIO
    TITLE "18:cjc023_2159"
    INDEX 01 07:48:20
  TRACK 387 AUDIO
    TITLE "0:"
    INDEX 01 07:49:39
  TRACK 388 AUDIO
    TITLE "19:cjc023_2160"
    INDEX 01 07:49:60
  TRACK 389 AUDIO
    TITLE "0:"
    INDEX 01 07:53:27
  TRACK 390 AUDIO
    TITLE "18:cjc023_2161"
    INDEX 01 07:54:24
  TRACK 391 AUDIO
    TITLE "0:"
    INDEX 01 07:55:30
  TRACK 392 AUDIO
    TITLE "19:cjc023_2162"
    INDEX 01 07:55:49
  TRACK 393 AUDIO
    TITLE "0:"
    INDEX 01 07:57:50
  TRACK 394 AUDIO
    TITLE "18:cjc023_2163"
    INDEX 01 07:58:46
  TRACK 395 AUDIO
    TITLE "0:"
    INDEX 01 07:59:73
  TRACK 396 AUDIO
    TITLE "19:cjc023_2164"
    INDEX 01 08:00:21
  TRACK 397 AUDIO
    TITLE "0:"
    INDEX 01 08:02:61
  TRACK 398 AUDIO
    TITLE "18:cjc023_2165"
    INDEX 01 08:03:59
  TRACK 399 AUDIO
    TITLE "0:"
    INDEX 01 08:04:70
  TRACK 400 AUDIO
    TITLE "19:cjc023_2166"
    INDEX 01 08:05:14
  TRACK 401 AUDIO
    TITLE "0:"
    INDEX 01 08:07:23
